<svg id="Layer_1" data-name="Layer 1" xmlns="http://www.w3.org/2000/svg" xmlns:xlink="http://www.w3.org/1999/xlink" viewBox="0 0 256.94 170.56"><defs><style>.cls-1{fill:none;}.cls-2{clip-path:url(#clip-path);}.cls-3{opacity:0.8;}.cls-4{fill:#ffdc96;}</style><clipPath id="clip-path"><rect class="cls-1" y="-32.81" width="293.76" height="203.37"/></clipPath></defs><g id="Layer_2" data-name="Layer 2"><g id="Layer_1-2" data-name="Layer 1-2"><g class="cls-2"><g class="cls-3"><path class="cls-4" d="M41.36,101.28C51,105.46,62.05,104.55,72.5,103s21-3.67,31.39-1.67c11.83,2.27,22,9.68,32.94,14.63s24.93,7.1,34.33-.44c15.9-12.73,7.71-42.9,24.71-54.1,9.91-6.53,25.11-3.67,32.53-12.92,5-6.24,4-15.12,5.08-23s7.33-16.91,15-14.83c7.09,2,8.46,11.27,8.45,18.63l-.19,132.09a1182.23,1182.23,0,0,1-175.89,6c-15.9-.64-32.46-1.8-46.29-9.69a52.94,52.94,0,0,1-25.78-38.1c-1.17-8.51-.29-31.79,9.1-36.53C26.29,78.76,33.48,97.82,41.36,101.28Z"/></g><path d="M-43.54,93.21c13.29,1.61,25.73,10.39,34.66,18.5,2.58,2.35,5.16,4.84,7.62,7.23C8.71,128.5,19,138.36,32,142.78c14.32,4.88,30,2.47,43.54-.51,2.66-.59,5.36-1.23,8-1.84,11.62-2.73,23.61-5.56,35.68-5.18,13.24.42,30.05,5.89,37.6,19.94,2.41,4.48,3.67,9.5,4.89,14.36a74.69,74.69,0,0,0,3.71,12c3.81,8.71,13.26,15.6,21.24,12.11l.25.57c-8.33,3.65-18.14-3.48-22.07-12.43a76.88,76.88,0,0,1-3.74-12c-1.21-4.81-2.46-9.8-4.83-14.21-7.43-13.83-24-19.2-37-19.59-12-.38-24,2.43-35.51,5.16-2.63.61-5.33,1.25-8,1.84-13.58,3-29.39,5.44-43.86.5C18.71,139,8.4,129.12-1.57,119.55c-2.49-2.39-5.07-4.88-7.62-7.22C-20.77,101.75-38.1,90.2-55.45,94.49l-.15-.61A33.08,33.08,0,0,1-43.54,93.21Z"/></g></g></g></svg>