<svg xmlns="http://www.w3.org/2000/svg" xmlns:xlink="http://www.w3.org/1999/xlink" viewBox="0 0 287.14 169.76"><defs><style>.cls-1{fill:none;}.cls-2{clip-path:url(#clip-path);}.cls-3{opacity:0.8;}.cls-4{fill:#ffdc96;}</style><clipPath id="clip-path" transform="translate(51.08 -39.62)"><rect class="cls-1" x="41.52" y="-41.52" width="186.83" height="269.86" transform="translate(41.52 228.34) rotate(-90)"/></clipPath></defs><g id="Layer_2" data-name="Layer 2"><g id="Layer_1-2" data-name="Layer 1"><g class="cls-2"><g class="cls-3"><path class="cls-4" d="M38,123.18c8.89,3.84,19,3,28.6,1.58s19.34-3.38,28.84-1.54c10.87,2.09,20.16,8.89,30.26,13.44s22.9,6.52,31.54-.4c14.6-11.7,7.08-39.41,22.7-49.7,9.1-6,23.06-3.37,29.88-11.87,4.58-5.73,3.68-13.89,4.67-21.16S221.22,38,228.29,39.91c6.52,1.81,7.78,10.35,7.77,17.11l-.18,121.35A1085.88,1085.88,0,0,1,74.3,183.88c-14.61-.59-29.82-1.65-42.52-8.9a48.67,48.67,0,0,1-23.69-35c-1.07-7.82-.26-29.21,8.36-33.56C24.15,102.49,30.76,120,38,123.18Z" transform="translate(51.08 -39.62)"/></g><path d="M-40,115.76c12.21,1.48,23.64,9.55,31.84,17,2.37,2.16,4.74,4.44,7,6.64C8,148.18,17.43,157.24,29.37,161.3c13.15,4.48,27.59,2.27,40-.47,2.44-.54,4.92-1.13,7.32-1.69,10.67-2.51,21.69-5.11,32.78-4.76,12.16.39,27.6,5.41,34.54,18.32,2.21,4.12,3.37,8.73,4.49,13.19a69.06,69.06,0,0,0,3.41,11c3.5,8,12.18,14.33,19.51,11.12l.23.53c-7.65,3.35-16.66-3.2-20.27-11.42a69.81,69.81,0,0,1-3.44-11c-1.11-4.42-2.26-9-4.44-13.05-6.82-12.71-22.07-17.64-34-18-11-.35-22,2.23-32.62,4.74-2.41.56-4.89,1.15-7.33,1.69-12.47,2.76-27,5-40.29.46-12.07-4.11-21.54-13.21-30.7-22-2.29-2.2-4.66-4.48-7-6.63C-19.08,123.61-35,113-50.94,116.94l-.14-.56A30.4,30.4,0,0,1-40,115.76Z" transform="translate(51.08 -39.62)"/></g></g></g></svg>