<svg id="Layer_1" data-name="Layer 1" xmlns="http://www.w3.org/2000/svg" xmlns:xlink="http://www.w3.org/1999/xlink" viewBox="0 0 256.94 170.56"><defs><style>.cls-1{fill:none;}.cls-2{clip-path:url(#clip-path);}.cls-3{fill:#97d3d3;}.cls-4{opacity:0.8;}.cls-5{fill:#ffdc96;}.cls-6{isolation:isolate;font-size:22.97px;fill:#363436;font-family:TwCenMT-Bold, Tw Cen MT;font-weight:700;}</style><clipPath id="clip-path"><rect class="cls-1" x="0.09" y="0.28" width="283.78" height="170.28"/></clipPath></defs><g id="Layer_2" data-name="Layer 2"><g id="Layer_1-2" data-name="Layer 1-2"><g class="cls-2"><path class="cls-3" d="M39.09,161.85c4.62-9.37,5.39-19.79,5.63-30s0-20.5,2.82-30.4c4.83-17,18-31,28.89-45.81,9.25-12.59,16.93-26,24.58-39.36,4.69-8.18,9.46-17.67,5.42-26.11-3.92-8.19-14.56-12-24.27-14.82-16.59-4.76-33.8-8.81-51.26-8.25S-4.54-26.52-15.36-14.63C-26.84-2-28.66,15.1-29.36,31.15c-1.88,40.61-1,82.53,6.48,122.74C-17.52,183.12,23.92,192.58,39.09,161.85Z"/><g class="cls-4"><path class="cls-5" d="M-3.2,59.64c12.08,6,27.18,5.54,40.51,2.11s25.47-9.57,38-14.73,26.12-9.47,40-8.8c10.94.53,21.34,4.11,32.05,6.08s22.78,2.1,31.63-3.5c9.59-6.07,13.79-17.84,24.79-21.7,12-4.2,26.28,3.11,38.2-1.18,10.15-3.66,14.4-15.19,10.79-24.2s-13.26-15.37-23.68-18.44-21.6-3.37-32.59-3.63L78.17-31.16c-23.86-.56-48.9-.9-70.08,8.62C-8.06-15.28-21.76.14-21.54,16.46-21.36,31-19.52,51.57-3.2,59.64Z"/></g><path d="M118.57-8.87C105.57,4,87.71,12.71,68.31,15.76c-1.65.26-3.35.48-5,.7-5.91.78-12,1.59-17.21,4.16C37.28,25,31.62,34,28.8,48c-.36,1.79-.69,3.64-1,5.43-1.6,8.94-3.26,18.19-9.15,25.7-4.23,5.38-11.68,9.3-19,10-5.4.51-10.11-.75-13.63-3.64l.42-.38c3.38,2.78,7.93,4,13.14,3.5C6.73,88,14,84.13,18.14,78.87c5.82-7.4,7.47-16.59,9.06-25.48.32-1.79.65-3.64,1-5.44,2.89-14.25,8.62-23.33,17.61-27.78,5.29-2.62,11.46-3.44,17.42-4.23,1.64-.22,3.33-.44,5-.7,19.26-3,37-11.71,49.91-24.46Z"/></g><text class="cls-6" transform="translate(87.9 100.16)">HI, I’M VISHAL</text></g></g></svg>