<svg xmlns="http://www.w3.org/2000/svg" xmlns:xlink="http://www.w3.org/1999/xlink" viewBox="0 0 284.32 213.75"><defs><style>.cls-1{fill:none;}.cls-2{clip-path:url(#clip-path);}.cls-3{fill:#97d3d3;}.cls-4{opacity:0.8;}.cls-5{fill:#ffdc96;}.cls-6{font-size:22.97px;fill:#363436;font-family:TwCenMT-Bold, Tw Cen MT;font-weight:700;}</style><clipPath id="clip-path" transform="translate(30.33 33.21)"><rect class="cls-1" x="56.75" y="-56.75" width="170.28" height="283.78" transform="translate(56.75 227.03) rotate(-90)"/></clipPath></defs><g id="Layer_2" data-name="Layer 2"><g id="Layer_1-2" data-name="Layer 1"><g class="cls-2"><path class="cls-3" d="M39,161.57c4.62-9.37,5.39-19.79,5.63-30s0-20.5,2.82-30.4c4.83-17,18-31,28.89-45.81,9.25-12.59,16.93-26,24.58-39.36,4.69-8.18,9.46-17.67,5.42-26.11-3.92-8.19-14.56-12-24.27-14.82-16.59-4.76-33.8-8.81-51.26-8.25S-4.63-26.8-15.45-14.91c-11.48,12.62-13.3,29.73-14,45.78-1.88,40.61-1,82.53,6.48,122.74C-17.61,182.84,23.83,192.3,39,161.57Z" transform="translate(30.33 33.21)"/><g class="cls-4"><path class="cls-5" d="M-3.29,59.36c12.08,6,27.18,5.54,40.51,2.11s25.47-9.57,38-14.73,26.12-9.47,40-8.8c10.94.53,21.34,4.11,32.05,6.08s22.78,2.1,31.63-3.5c9.59-6.07,13.79-17.84,24.79-21.7,12-4.2,26.28,3.11,38.2-1.18,10.15-3.66,14.4-15.19,10.79-24.2S239.42-21.93,229-25s-21.6-3.37-32.59-3.63L78.08-31.44C54.22-32,29.18-32.34,8-22.82c-16.15,7.26-29.85,22.68-29.63,39C-21.45,30.71-19.61,51.29-3.29,59.36Z" transform="translate(30.33 33.21)"/></g><path d="M118.48-9.15c-13,12.84-30.86,21.58-50.26,24.63-1.65.26-3.35.48-5,.7-5.91.78-12,1.59-17.21,4.16-8.82,4.37-14.48,13.33-17.3,27.4-.36,1.79-.69,3.64-1,5.43-1.6,8.94-3.26,18.19-9.15,25.7-4.23,5.38-11.68,9.3-19,10-5.4.51-10.11-.75-13.63-3.64l.42-.38c3.38,2.78,7.93,4,13.14,3.5,7.15-.67,14.44-4.5,18.56-9.76,5.82-7.4,7.47-16.59,9.06-25.48.32-1.79.65-3.64,1-5.44C31,33.42,36.73,24.34,45.72,19.89c5.29-2.62,11.46-3.44,17.42-4.23,1.64-.22,3.33-.44,5-.7,19.26-3,37-11.71,49.91-24.46Z" transform="translate(30.33 33.21)"/></g><text class="cls-6" transform="translate(118.14 133.09)">HI, I’M VISHAL</text></g></g></svg>